<?xml version="1.0" encoding="UTF-8"?>
<svg id="Capa_1" data-name="Capa 1" xmlns="http://www.w3.org/2000/svg" viewBox="0 0 100 100">
  <defs>
    <style>
      .cls-1 {
        fill: #2c3788;
      }
    </style>
  </defs>
  <path class="cls-1" d="M43.17,40.43l-5.12-5.12,2.39-2.39,5.12,5.12-2.39,2.39ZM56.83,40.43l-2.39-2.39,5.12-5.12,2.39,2.39-5.12,5.12ZM48.29,38.04v-8.54h3.42v8.54h-3.42ZM36.33,70.5c-.48,0-.89-.16-1.22-.49-.33-.33-.49-.73-.49-1.22v-13.67l3.59-10.25c.17-.51.48-.93.92-1.24s.93-.47,1.47-.47h18.79c.54,0,1.03.16,1.47.47s.75.73.92,1.24l3.59,10.25v13.67c0,.48-.16.89-.49,1.22-.33.33-.73.49-1.22.49h-1.71c-.48,0-.89-.16-1.22-.49-.33-.33-.49-.73-.49-1.22v-1.71h-20.5v1.71c0,.48-.16.89-.49,1.22-.33.33-.73.49-1.22.49h-1.71ZM39.41,51.71h21.18l-1.79-5.12h-17.6l-1.79,5.12ZM42.31,61.96c.71,0,1.32-.25,1.82-.75s.75-1.1.75-1.82-.25-1.32-.75-1.82-1.1-.75-1.82-.75-1.32.25-1.82.75c-.5.5-.75,1.1-.75,1.82s.25,1.32.75,1.82c.5.5,1.1.75,1.82.75ZM57.69,61.96c.71,0,1.32-.25,1.82-.75s.75-1.1.75-1.82-.25-1.32-.75-1.82-1.1-.75-1.82-.75-1.32.25-1.82.75-.75,1.1-.75,1.82.25,1.32.75,1.82,1.1.75,1.82.75ZM38.04,63.67h23.92v-8.54h-23.92v8.54ZM38.04,63.67v-8.54,8.54Z"/>
</svg>