<?xml version="1.0" encoding="UTF-8"?>
<svg id="Capa_1" data-name="Capa 1" xmlns="http://www.w3.org/2000/svg" viewBox="0 0 100 100">
  <defs>
    <style>
      .cls-1 {
        fill: #2c3788;
      }
    </style>
  </defs>
  <path class="cls-1" d="M61.88,65l-9.11-9.11,3.5-3.5,9.11,9.11-3.5,3.5ZM38.91,65l-3.5-3.5,11.48-11.48-2.83-2.83-1.17,1.17-2.12-2.12v3.41l-1.17,1.17-5.03-5.03,1.17-1.17h3.41l-2.08-2.08,5.91-5.91c.55-.55,1.15-.96,1.79-1.21s1.29-.37,1.96-.37,1.32.12,1.96.37,1.23.65,1.79,1.21l-3.83,3.83,2.08,2.08-1.17,1.17,2.83,2.83,3.74-3.74c-.11-.31-.2-.62-.27-.96s-.1-.67-.1-1c0-1.64.56-3.02,1.69-4.14,1.12-1.12,2.5-1.69,4.14-1.69.42,0,.81.04,1.19.12s.76.21,1.14.37l-4.12,4.12,3,3,4.12-4.12c.19.39.33.77.4,1.14s.1.77.1,1.19c0,1.64-.56,3.02-1.69,4.14-1.12,1.12-2.5,1.69-4.14,1.69-.33,0-.67-.03-1-.08s-.65-.15-.96-.29l-18.72,18.72Z"/>
</svg>