<?xml version="1.0" encoding="UTF-8"?>
<svg id="Capa_1" data-name="Capa 1" xmlns="http://www.w3.org/2000/svg" viewBox="0 0 100 100">
  <defs>
    <style>
      .cls-1 {
        fill: #2c3788;
      }
    </style>
  </defs>
  <path class="cls-1" d="M30.53,66v-4.98c0-.98.25-1.9.76-2.76.5-.86,1.2-1.51,2.09-1.96,1.51-.77,3.21-1.42,5.11-1.96,1.9-.53,3.99-.8,6.27-.8s4.37.27,6.27.8c1.9.53,3.6,1.19,5.11,1.96.89.44,1.59,1.1,2.09,1.96s.76,1.78.76,2.76v4.98h-28.44ZM34.09,62.44h21.33v-1.42c0-.33-.08-.62-.24-.89s-.38-.47-.64-.62c-1.07-.53-2.44-1.07-4.11-1.6-1.67-.53-3.56-.8-5.67-.8s-3.99.27-5.67.8c-1.67.53-3.04,1.07-4.11,1.6-.27.15-.48.36-.64.62-.16.27-.24.56-.24.89v1.42ZM44.76,51.78c-1.96,0-3.63-.7-5.02-2.09-1.39-1.39-2.09-3.07-2.09-5.02h-.44c-.27,0-.48-.08-.64-.24s-.24-.38-.24-.64.08-.48.24-.64.38-.24.64-.24h.44c0-1.33.33-2.53.98-3.6s1.51-1.91,2.58-2.53v1.69c0,.27.08.48.24.64s.38.24.64.24.48-.08.64-.24.24-.38.24-.64v-2.4c.27-.09.55-.16.84-.2s.61-.07.93-.07.64.02.93.07.58.11.84.2v2.4c0,.27.08.48.24.64s.38.24.64.24.48-.08.64-.24.24-.38.24-.64v-1.69c1.07.62,1.93,1.47,2.58,2.53.65,1.07.98,2.27.98,3.6h.44c.27,0,.48.08.64.24s.24.38.24.64-.08.48-.24.64-.38.24-.64.24h-.44c0,1.96-.7,3.63-2.09,5.02-1.39,1.39-3.07,2.09-5.02,2.09ZM44.76,48.22c.98,0,1.81-.35,2.51-1.04s1.04-1.53,1.04-2.51h-7.11c0,.98.35,1.81,1.04,2.51s1.53,1.04,2.51,1.04ZM58.09,55.33l-.27-1.33c-.18-.06-.35-.13-.51-.2s-.32-.19-.47-.33l-1.24.44-.89-1.6.98-.89v-1.07l-.98-.89.89-1.6,1.24.44c.12-.12.27-.22.44-.31s.36-.16.53-.22l.27-1.33h1.78l.27,1.33c.18.06.36.13.53.22s.33.19.44.31l1.24-.44.89,1.6-.98.89v1.07l.98.89-.89,1.6-1.24-.44c-.15.15-.3.26-.47.33s-.33.14-.51.2l-.27,1.33h-1.78ZM58.98,52.22c.36,0,.67-.13.93-.4s.4-.58.4-.93-.13-.67-.4-.93-.58-.4-.93-.4-.67.13-.93.4-.4.58-.4.93.13.67.4.93.58.4.93.4ZM62.18,46.44l-.36-1.87c-.27-.09-.51-.2-.73-.33s-.42-.29-.6-.47l-1.87.62-1.24-2.13,1.51-1.33c-.06-.15-.09-.27-.09-.36v-.71c0-.09.03-.21.09-.36l-1.51-1.33,1.24-2.13,1.87.62c.18-.18.38-.33.6-.47s.47-.24.73-.33l.36-1.87h2.49l.36,1.87c.27.09.51.2.73.33s.42.29.6.47l1.87-.62,1.24,2.13-1.51,1.33c.06.15.09.27.09.36v.71c0,.09-.03.21-.09.36l1.51,1.33-1.24,2.13-1.87-.62c-.18.18-.38.33-.6.47s-.47.24-.73.33l-.36,1.87h-2.49ZM63.42,42.44c.62,0,1.15-.21,1.58-.64s.64-.96.64-1.58-.21-1.15-.64-1.58-.96-.64-1.58-.64-1.15.21-1.58.64-.64.96-.64,1.58.21,1.15.64,1.58.96.64,1.58.64Z"/>
</svg>