<?xml version="1.0" encoding="UTF-8"?>
<svg id="Capa_1" data-name="Capa 1" xmlns="http://www.w3.org/2000/svg" viewBox="0 0 100 100">
  <defs>
    <style>
      .cls-1 {
        fill: #2c3788;
      }
    </style>
  </defs>
  <path class="cls-1" d="M50,72.38c8.25-6.67,14.48-13.08,18.69-19.25,4.21-6.17,6.31-11.96,6.31-17.38,0-7.5-2.33-13.67-7-18.5s-10.67-7.25-18-7.25-13.33,2.42-18,7.25-7,11-7,18.5c0,5.42,2.1,11.21,6.31,17.38,4.21,6.17,10.44,12.58,18.69,19.25ZM50,85c-11.75-8.67-20.52-17.08-26.31-25.25-5.79-8.17-8.69-16.17-8.69-24,0-10.42,3.25-18.98,9.75-25.69S39.67,0,50,0s18.75,3.35,25.25,10.06,9.75,15.27,9.75,25.69c0,7.83-2.9,15.83-8.69,24-5.79,8.17-14.56,16.58-26.31,25.25ZM50,45c2.75,0,5.1-.98,7.06-2.94s2.94-4.31,2.94-7.06-.98-5.1-2.94-7.06-4.31-2.94-7.06-2.94-5.1.98-7.06,2.94-2.94,4.31-2.94,7.06.98,5.1,2.94,7.06,4.31,2.94,7.06,2.94ZM15,100v-10h70v10H15Z"/>
</svg>