<?xml version="1.0" encoding="UTF-8"?>
<svg id="Capa_1" data-name="Capa 1" xmlns="http://www.w3.org/2000/svg" viewBox="0 0 100 100">
  <defs>
    <style>
      .cls-1 {
        fill: #2c3788;
      }
    </style>
  </defs>
  <path class="cls-1" d="M50,66.67c-4.63,0-8.56-1.62-11.81-4.86s-4.86-7.18-4.86-11.81,1.62-8.56,4.86-11.81,7.18-4.86,11.81-4.86,8.56,1.62,11.81,4.86c3.24,3.24,4.86,7.18,4.86,11.81s-1.62,8.56-4.86,11.81-7.18,4.86-11.81,4.86Z"/>
  <path class="cls-1" d="M96.74,19.93c-2.18-2.18-4.79-3.26-7.85-3.26H11.11c-3.06,0-5.67,1.09-7.85,3.26-2.18,2.18-3.26,4.79-3.26,7.85v44.44c0,3.06,1.09,5.67,3.26,7.85,2.18,2.18,4.79,3.26,7.85,3.26h77.78c3.06,0,5.67-1.09,7.85-3.26,2.18-2.18,3.26-4.79,3.26-7.85V27.78c0-3.06-1.09-5.67-3.26-7.85ZM88.89,61.11c-3.06,0-5.67,1.09-7.85,3.26-2.18,2.18-3.26,4.79-3.26,7.85H22.22c0-3.06-1.09-5.67-3.26-7.85-2.18-2.18-4.79-3.26-7.85-3.26v-22.22c3.06,0,5.67-1.09,7.85-3.26,2.18-2.18,3.26-4.79,3.26-7.85h55.56c0,3.06,1.09,5.67,3.26,7.85,2.18,2.18,4.79,3.26,7.85,3.26v22.22Z"/>
</svg>