<?xml version="1.0" encoding="UTF-8"?>
<svg id="Capa_1" data-name="Capa 1" xmlns="http://www.w3.org/2000/svg" viewBox="0 0 100 100">
  <defs>
    <style>
      .cls-1 {
        fill: #2c3788;
        stroke: #2c3788;
        stroke-miterlimit: 10;
        stroke-width: 2.88px;
      }
    </style>
  </defs>
  <path class="cls-1" d="M73.22,98H26.49c-1.29-.3-2.62-.37-3.93-.65-9.68-2.11-17.8-10.23-19.91-19.91-.28-1.3-.35-2.63-.65-3.93V26.78C3.18,13.5,13.76,3.04,27.14,2.28c14.97.69,30.74-.9,45.62,0,13.37.82,24.14,11.59,24.96,24.96.91,14.88-.68,30.65,0,45.62-.6,13.11-11.41,24.19-24.5,25.14ZM28.32,10.75c-10.65.65-17.38,7.75-17.92,18.35-.73,14.61.39,30,.22,44.66,1.05,8.16,7.45,14.56,15.61,15.61,14.7-.2,30.19.99,44.84.21,10.67-.57,17.66-7.56,18.23-18.23.78-14.65-.41-30.14-.21-44.84-1.05-8.16-7.44-14.56-15.61-15.61-14.78.23-30.44-1.05-45.16-.16Z"/>
  <path class="cls-1" d="M48.32,25.52c19.19-1.23,32.25,19.19,23.32,36.21-7.81,14.89-28.34,17.52-39.82,5.23-14.19-15.18-4.16-40.12,16.51-41.45ZM47.76,34.12c-11.33,1.15-17.45,14.18-11.96,24,6.1,10.91,22.16,10.83,28.17-.12,6.47-11.78-2.96-25.23-16.21-23.88Z"/>
  <path class="cls-1" d="M74.3,18.41c8.71-1.36,10.03,11.03,2.34,12.25-8.37,1.32-9.82-11.08-2.34-12.25Z"/>
</svg>