<?xml version="1.0" encoding="UTF-8"?>
<svg id="Capa_1" data-name="Capa 1" xmlns="http://www.w3.org/2000/svg" viewBox="0 0 100 100">
  <defs>
    <style>
      .cls-1 {
        fill: #2c3788;
      }
    </style>
  </defs>
  <path class="cls-1" d="M10.05,100c-2.75,0-5.1-.98-7.05-2.93-1.96-1.96-2.93-4.31-2.93-7.05V20.1c0-2.75.98-5.1,2.93-7.05,1.96-1.96,4.31-2.93,7.05-2.93h44.57l-9.99,9.99H10.05v69.91h69.91v-34.71l9.99-9.99v44.69c0,2.75-.98,5.1-2.93,7.05-1.96,1.96-4.31,2.93-7.05,2.93H10.05ZM30.02,70.04v-21.22L75.84,3c1-1,2.12-1.75,3.37-2.25s2.5-.75,3.75-.75c1.33,0,2.6.25,3.81.75s2.31,1.25,3.31,2.25l6.99,7.12c.92,1,1.62,2.1,2.12,3.31s.75,2.43.75,3.68-.23,2.48-.69,3.68-1.19,2.31-2.18,3.31l-45.82,45.94h-21.22ZM90.07,17.1l-6.99-6.99,6.99,6.99ZM40.01,60.05h6.99l28.96-28.96-3.5-3.5-3.62-3.5-28.84,28.84v7.12ZM72.47,27.59l-3.62-3.5,3.62,3.5,3.5,3.5-3.5-3.5Z"/>
</svg>