<?xml version="1.0" encoding="UTF-8"?>
<svg id="Capa_1" data-name="Capa 1" xmlns="http://www.w3.org/2000/svg" viewBox="0 0 100 100">
  <defs>
    <style>
      .cls-1 {
        fill: #2c3788;
      }
    </style>
  </defs>
  <path class="cls-1" d="M18.45,47.62l-1.43-7.14c-.95-.4-1.85-.81-2.68-1.25s-1.69-.97-2.56-1.61l-6.9,2.14L.12,31.67l5.48-4.76c-.16-1.03-.24-2.06-.24-3.1s.08-2.06.24-3.1L.12,15.95,4.88,7.86l6.9,2.14c.87-.63,1.73-1.17,2.56-1.61s1.73-.85,2.68-1.25l1.43-7.14h9.52l1.43,7.14c.95.4,1.85.81,2.68,1.25s1.69.97,2.56,1.61l6.9-2.14,4.76,8.1-5.48,4.76c.16,1.03.24,2.06.24,3.1s-.08,2.06-.24,3.1l5.48,4.76-4.76,8.1-6.9-2.14c-.87.63-1.73,1.17-2.56,1.61s-1.73.85-2.68,1.25l-1.43,7.14h-9.52ZM23.21,33.33c2.62,0,4.86-.93,6.73-2.8s2.8-4.11,2.8-6.73-.93-4.86-2.8-6.73-4.11-2.8-6.73-2.8-4.86.93-6.73,2.8-2.8,4.11-2.8,6.73.93,4.86,2.8,6.73,4.11,2.8,6.73,2.8ZM61.07,100l-2.14-10c-1.35-.48-2.6-1.05-3.75-1.73s-2.28-1.45-3.39-2.32l-9.52,3.1-6.67-11.43,7.62-6.67c-.16-1.43-.24-2.86-.24-4.29s.08-2.86.24-4.29l-7.62-6.67,6.67-11.43,9.52,3.1c1.11-.87,2.24-1.65,3.39-2.32s2.4-1.25,3.75-1.73l2.14-10h13.33l2.14,10c1.35.48,2.6,1.05,3.75,1.73s2.28,1.45,3.39,2.32l9.52-3.1,6.67,11.43-7.62,6.67c.16,1.43.24,2.86.24,4.29s-.08,2.86-.24,4.29l7.62,6.67-6.67,11.43-9.52-3.1c-1.11.87-2.24,1.65-3.39,2.32s-2.4,1.25-3.75,1.73l-2.14,10h-13.33ZM67.74,80.95c3.97,0,7.34-1.39,10.12-4.17,2.78-2.78,4.17-6.15,4.17-10.12s-1.39-7.34-4.17-10.12c-2.78-2.78-6.15-4.17-10.12-4.17s-7.34,1.39-10.12,4.17c-2.78,2.78-4.17,6.15-4.17,10.12s1.39,7.34,4.17,10.12c2.78,2.78,6.15,4.17,10.12,4.17Z"/>
</svg>