<?xml version="1.0" encoding="UTF-8"?>
<svg id="Capa_1" data-name="Capa 1" xmlns="http://www.w3.org/2000/svg" viewBox="0 0 100 100">
  <defs>
    <style>
      .cls-1 {
        fill: #2c3788;
        stroke: #2c3788;
        stroke-miterlimit: 10;
        stroke-width: 1.94px;
      }
    </style>
  </defs>
  <path class="cls-1" d="M45.15,98.5v-20.13l-15.76,15.52-6.79-6.79,22.55-22.55v-9.7h-9.7l-22.55,22.55-6.79-6.79,15.52-15.76H1.5v-9.7h20.13l-15.52-15.76,6.79-6.79,22.55,22.55h9.7v-9.7L22.6,12.9l6.79-6.79,15.76,15.52V1.5h9.7v20.13l15.76-15.52,6.79,6.79-22.55,22.55v9.7h9.7l22.55-22.55,6.79,6.79-15.52,15.76h20.13v9.7h-20.13l15.52,15.76-6.79,6.79-22.55-22.55h-9.7v9.7l22.55,22.55-6.79,6.79-15.76-15.52v20.13h-9.7Z"/>
</svg>