<?xml version="1.0" encoding="UTF-8"?>
<svg id="Capa_1" data-name="Capa 1" xmlns="http://www.w3.org/2000/svg" viewBox="0 0 100 100">
  <defs>
    <style>
      .cls-1 {
        fill: #2c3788;
      }
    </style>
  </defs>
  <path class="cls-1" d="M78.61,98.33l-33.61-33.89c-1.85.74-3.73,1.3-5.62,1.67s-3.91.56-6.04.56c-9.26,0-17.13-3.24-23.61-9.72C3.24,50.46,0,42.59,0,33.33c0-3.33.46-6.5,1.39-9.51.93-3.01,2.22-5.86,3.89-8.54l20.28,20.28,10-10L15.28,5.28c2.69-1.67,5.53-2.96,8.54-3.89s6.18-1.39,9.51-1.39c9.26,0,17.13,3.24,23.61,9.72,6.48,6.48,9.72,14.35,9.72,23.61,0,2.13-.19,4.14-.56,6.04s-.93,3.77-1.67,5.62l33.89,33.61c1.11,1.11,1.67,2.45,1.67,4.03s-.56,2.92-1.67,4.03l-11.67,11.67c-1.11,1.11-2.45,1.67-4.03,1.67s-2.92-.56-4.03-1.67ZM82.64,86.53l3.75-3.75-35.56-35.56c1.67-1.85,2.87-4,3.61-6.46.74-2.45,1.11-4.93,1.11-7.43,0-5.56-1.78-10.39-5.35-14.51s-7.99-6.6-13.26-7.43l10.28,10.28c1.11,1.11,1.67,2.41,1.67,3.89s-.56,2.78-1.67,3.89l-17.78,17.78c-1.11,1.11-2.41,1.67-3.89,1.67s-2.78-.56-3.89-1.67l-10.28-10.28c.83,5.28,3.31,9.7,7.43,13.26,4.12,3.56,8.96,5.35,14.51,5.35,2.41,0,4.81-.37,7.22-1.11s4.58-1.9,6.53-3.47l35.56,35.56Z"/>
</svg>