<?xml version="1.0" encoding="UTF-8"?>
<svg id="Capa_1" data-name="Capa 1" xmlns="http://www.w3.org/2000/svg" viewBox="0 0 100 100">
  <defs>
    <style>
      .cls-1 {
        fill: #2c3788;
        stroke: #2c3788;
        stroke-miterlimit: 10;
        stroke-width: 1.94px;
      }
    </style>
  </defs>
  <path class="cls-1" d="M62.76,50.64V9.16h10.21v31.27l-10.21,10.21ZM1.5,90.84V9.16h10.21v81.68H1.5ZM32.13,29.58V9.16h10.21v20.42h-10.21ZM32.13,60.21v-20.42h10.21v20.42h-10.21ZM32.13,90.84v-20.42h10.21v20.42h-10.21ZM52.55,90.84v-15.7l28.21-28.08c.77-.77,1.62-1.32,2.55-1.66s1.87-.51,2.81-.51c1.02,0,2,.19,2.94.57s1.79.96,2.55,1.72l4.72,4.72c.68.77,1.21,1.62,1.6,2.55s.57,1.87.57,2.81-.17,1.89-.51,2.87-.89,1.85-1.66,2.62l-28.08,28.08h-15.7ZM90.84,57.27l-4.72-4.72,4.72,4.72ZM60.21,83.18h4.85l15.44-15.57-2.3-2.43-2.42-2.3-15.57,15.44v4.85ZM78.21,65.19l-2.42-2.3,4.72,4.72-2.3-2.43Z"/>
</svg>