<?xml version="1.0" encoding="UTF-8"?>
<svg id="Capa_1" data-name="Capa 1" xmlns="http://www.w3.org/2000/svg" viewBox="0 0 100 100">
  <defs>
    <style>
      .cls-1 {
        fill: #2c3788;
        stroke: #2c3788;
        stroke-miterlimit: 10;
        stroke-width: 2.88px;
      }
    </style>
  </defs>
  <path class="cls-1" d="M2.3,98l6.6-24.49C-9.58,40.31,15.04.06,53.16,2.07c23.31,1.23,43.19,20.91,44.46,44.26,2.06,37.85-37,62.54-70.43,45.08l-24.9,6.58ZM13.69,86.61l14.87-3.79c21.48,13.66,50.48,3.99,58.87-20.08,10.39-29.81-16.29-59.02-46.89-51.49C13.87,17.82,2.09,49.48,17.6,72.12l-3.91,14.49Z"/>
  <path class="cls-1" d="M32.42,27.71c.76-.13,3.59-.17,4.26.04.33.1.77.54.99.81.84,1.06,3.82,8.41,4.35,10.04.42,1.28.25,1.59-.39,2.72-.71,1.25-2.78,3.13-3.21,4.18-.48,1.17,1,3.01,1.68,4.01,3.33,4.88,8.23,8.98,13.68,11.3,1.04.44,2.28,1.25,3.28.34l4.37-5.42c.91-.73,2.22-.09,3.15.28,3.14,1.24,6.05,3.08,9.13,4.46.75.6.59,2.13.5,3.05-.79,8.03-9.88,9.98-16.51,8.17-10.2-2.79-18.32-9.24-24.71-17.46-4.3-5.53-8.52-12.01-6.42-19.36.64-2.24,3.4-6.73,5.84-7.14Z"/>
</svg>