<?xml version="1.0" encoding="UTF-8"?>
<svg id="Capa_1" data-name="Capa 1" xmlns="http://www.w3.org/2000/svg" viewBox="0 0 100 100">
  <defs>
    <style>
      .cls-1 {
        fill: #2c3788;
      }
    </style>
  </defs>
  <path class="cls-1" d="M50,100l-34.29-25.71c-1.19-.87-2.12-1.98-2.8-3.33s-1.01-2.78-1.01-4.29V9.52c0-2.62.93-4.86,2.8-6.73s4.11-2.8,6.73-2.8h57.14c2.62,0,4.86.93,6.73,2.8s2.8,4.11,2.8,6.73v57.14c0,1.51-.34,2.94-1.01,4.29s-1.61,2.46-2.8,3.33l-34.29,25.71ZM50,88.1l28.57-21.43V9.52H21.43v57.14l28.57,21.43ZM45,61.9l26.9-26.9-6.67-6.9-20.24,20.24-10-10-6.9,6.67,16.9,16.9ZM50,9.52h-28.57,57.14-28.57Z"/>
</svg>