<?xml version="1.0" encoding="UTF-8"?>
<svg id="Capa_1" data-name="Capa 1" xmlns="http://www.w3.org/2000/svg" viewBox="0 0 100 100">
  <defs>
    <style>
      .cls-1 {
        fill: #2c3788;
        stroke: #2c3788;
        stroke-miterlimit: 10;
        stroke-width: 2.88px;
      }
    </style>
  </defs>
  <path class="cls-1" d="M31.71,98h18.29c1.3,0,2.38-.44,3.26-1.31.88-.88,1.31-1.96,1.31-3.26v-27.43c0-1.3-.44-2.38-1.31-3.26-.88-.88-1.96-1.31-3.26-1.31h-4.57v-13.71h36.57c2.51,0,4.67-.9,6.46-2.69,1.79-1.79,2.69-3.94,2.69-6.46v-18.29c0-2.51-.9-4.67-2.69-6.46s-3.94-2.69-6.46-2.69h-9.14v-4.57c0-1.3-.44-2.38-1.31-3.26-.88-.88-1.96-1.31-3.26-1.31H13.43c-1.3,0-2.38.44-3.26,1.31-.88.88-1.31,1.96-1.31,3.26v18.29c0,1.3.44,2.38,1.31,3.26.88.88,1.96,1.31,3.26,1.31h54.86c1.3,0,2.38-.44,3.26-1.31.88-.88,1.31-1.96,1.31-3.26v-4.57h9.14v18.29h-36.57c-2.51,0-4.67.9-6.46,2.69s-2.69,3.94-2.69,6.46v13.71h-4.57c-1.3,0-2.38.44-3.26,1.31-.88.88-1.31,1.96-1.31,3.26v27.43c0,1.3.44,2.38,1.31,3.26.88.88,1.96,1.31,3.26,1.31ZM45.43,88.86h-9.14v-18.29h9.14v18.29ZM63.71,20.29H18v-9.14h45.71v9.14ZM45.43,88.86h-9.14,9.14ZM63.71,20.29v-9.14,9.14Z"/>
</svg>