<?xml version="1.0" encoding="UTF-8"?>
<svg id="Capa_1" data-name="Capa 1" xmlns="http://www.w3.org/2000/svg" viewBox="0 0 100 100">
  <defs>
    <style>
      .cls-1 {
        fill: #2c3788;
      }
    </style>
  </defs>
  <path class="cls-1" d="M43.26,69.07h7.05c.5,0,.92-.17,1.26-.51s.51-.76.51-1.26v-10.57c0-.5-.17-.92-.51-1.26s-.76-.51-1.26-.51h-1.76v-5.29h14.1c.97,0,1.8-.35,2.49-1.04.69-.69,1.04-1.52,1.04-2.49v-7.05c0-.97-.35-1.8-1.04-2.49s-1.52-1.04-2.49-1.04h-3.52v-1.76c0-.5-.17-.92-.51-1.26-.34-.34-.76-.51-1.26-.51h-21.14c-.5,0-.92.17-1.26.51s-.51.76-.51,1.26v7.05c0,.5.17.92.51,1.26s.76.51,1.26.51h21.14c.5,0,.92-.17,1.26-.51.34-.34.51-.76.51-1.26v-1.76h3.52v7.05h-14.1c-.97,0-1.8.35-2.49,1.04s-1.04,1.52-1.04,2.49v5.29h-1.76c-.5,0-.92.17-1.26.51-.34.34-.51.76-.51,1.26v10.57c0,.5.17.92.51,1.26s.76.51,1.26.51ZM48.54,65.54h-3.52v-7.05h3.52v7.05ZM55.59,39.11h-17.62v-3.52h17.62v3.52ZM48.54,65.54h-3.52,3.52ZM55.59,39.11v-3.52,3.52Z"/>
</svg>