<?xml version="1.0" encoding="UTF-8"?>
<svg id="Capa_1" xmlns="http://www.w3.org/2000/svg" viewBox="0 0 450 62.25">
  <defs>
    <style>
      .cls-1 {
        fill: #009ee2;
      }

      .cls-1, .cls-2 {
        fill-rule: evenodd;
      }

      .cls-2 {
        fill: #fff;
      }
    </style>
  </defs>
  <path class="cls-1" d="M278.14,52.83c-7.45,7.54-19.49,9.42-29.57,9.42-10.89,0-17.12-2.05-21.46-4.1-5.74-2.7-16.79-9.83-16.79-26.78,0-3.03.41-10.48,5.24-17.44,5.08-7.29,14.41-13.93,33.66-13.93,15.73,0,24.66,4.1,29.49,9.42,3.19,3.44,4.42,7.29,4.91,8.84l-19.17,3.36c-.57-1.15-.9-1.8-1.72-2.87-3.11-4.01-8.27-5.65-13.11-5.57-1.96,0-8.52.41-13.1,5.24-3.2,3.44-4.5,8.27-4.5,12.86,0,6.14,2.21,9.83,3.77,11.79,4.5,5.9,10.65,6.06,13.27,6.06,7.7,0,12.29-3.85,14.09-6.22.66-.9,1.06-1.56,1.8-3.44l19.74,2.05c-.66,2.13-2.21,6.88-6.55,11.3"/>
  <g>
    <path class="cls-2" d="M64.67,52.82c-5.18,6.21-14.26,6.77-21.42,6.77H0V3.36h47.23c5.65,0,12.58.4,15.93,5.9.8,1.27,1.91,3.66,1.91,7.25,0,1.28-.08,4.86-2.39,7.81-1.27,1.59-3.82,3.74-8.36,4.86,3.5.56,6.69,1.12,9.48,3.5,3.34,2.79,4.14,6.21,4.14,10.35,0,1.75-.08,5.89-3.27,9.8M42.85,36.98h-22.7v9.79h21.19c.16,0,1.75,0,2.79-.24,2.55-.56,3.82-2.39,3.82-4.94,0-4.54-3.74-4.62-5.09-4.62ZM45.16,18.02c-1.03-1.75-2.95-1.99-4.78-1.99h-20.07v8.76h18.63c2.07,0,5.02.16,6.29-2.15.32-.64.56-1.51.56-2.23,0-.4,0-1.35-.64-2.39Z"/>
    <polygon class="cls-2" points="74.63 59.59 74.63 3.36 133.96 3.36 133.96 15.95 94.78 15.95 94.78 25.19 131.02 25.19 131.02 37.85 94.78 37.85 94.78 46.85 134.68 46.85 134.68 59.59 74.63 59.59"/>
    <polygon class="cls-2" points="187.73 59.59 161.04 29.49 161.04 59.59 141.13 59.59 141.13 3.36 157.78 3.36 184.62 32.99 184.62 3.36 204.45 3.36 204.45 59.59 187.73 59.59"/>
  </g>
  <path class="cls-1" d="M348.69,55.29c-2.95,1.99-5.81,3.34-9.16,4.3-3.26.96-8.2,1.91-16.17,1.91-11.94,0-19.19-2.63-23.73-5.34-1.51-.87-4.3-2.71-7.09-6.05-5.98-7.25-6.22-14.58-6.22-18.16,0-14.18,7.57-21.27,12.19-24.37,4.78-3.27,11.63-6.14,24.21-6.29,2.55,0,5.02,0,7.57.24,14.89,1.2,21.82,7.09,25.72,12.67,1.83,2.71,5.1,8.52,5.1,17.04,0,5.02-1.04,16.33-12.42,24.05M335.31,17.86c-.8-.8-2.71-2.23-5.41-3.19-1.44-.48-2.95-.88-5.98-.88-2.63,0-4.78.24-7.25,1.27-6.61,2.79-9.64,9.56-9.64,16.41,0,1.03.08,3.9,1.12,6.85,3.35,10.04,12.42,10.75,15.85,10.75.96,0,4.54,0,7.57-1.35,6.29-2.79,8.84-9.95,8.84-16.33,0-7.17-3.03-11.71-5.1-13.54Z"/>
  <polygon class="cls-1" points="430.17 59.59 430.17 23.6 416.87 59.59 401.34 59.59 388.12 23.76 388.12 59.59 368.36 59.59 368.36 3.36 395.05 3.36 409.22 40.08 423.4 3.36 450 3.36 450 59.59 430.17 59.59"/>
</svg>