<?xml version="1.0" encoding="UTF-8"?>
<svg id="Capa_1" xmlns="http://www.w3.org/2000/svg" viewBox="0 0 450 99.07">
  <defs>
    <style>
      .cls-1 {
        fill: #009ee2;
      }

      .cls-1, .cls-2 {
        fill-rule: evenodd;
      }

      .cls-2, .cls-3 {
        fill: #fff;
      }

      .cls-3 {
        stroke: #fff;
        stroke-miterlimit: 10;
        stroke-width: 1.07px;
      }
    </style>
  </defs>
  <path class="cls-1" d="M278.14,52.83c-7.45,7.54-19.49,9.42-29.57,9.42-10.89,0-17.12-2.05-21.46-4.1-5.74-2.7-16.79-9.83-16.79-26.78,0-3.03.41-10.48,5.24-17.44,5.08-7.29,14.41-13.93,33.66-13.93,15.73,0,24.66,4.1,29.49,9.42,3.19,3.44,4.42,7.29,4.91,8.84l-19.17,3.36c-.57-1.15-.9-1.8-1.72-2.87-3.11-4.01-8.27-5.65-13.11-5.57-1.96,0-8.52.41-13.1,5.24-3.2,3.44-4.5,8.27-4.5,12.86,0,6.14,2.21,9.83,3.77,11.79,4.5,5.9,10.65,6.06,13.27,6.06,7.7,0,12.29-3.85,14.09-6.22.66-.9,1.06-1.56,1.8-3.44l19.74,2.05c-.66,2.13-2.21,6.88-6.55,11.3"/>
  <g>
    <path class="cls-2" d="M64.67,52.82c-5.18,6.21-14.26,6.77-21.42,6.77H0V3.36h47.23c5.65,0,12.58.4,15.93,5.9.8,1.27,1.91,3.66,1.91,7.25,0,1.28-.08,4.86-2.39,7.81-1.27,1.59-3.82,3.74-8.36,4.86,3.5.56,6.69,1.12,9.48,3.5,3.34,2.79,4.14,6.21,4.14,10.35,0,1.75-.08,5.89-3.27,9.8M42.85,36.98h-22.7v9.79h21.19c.16,0,1.75,0,2.79-.24,2.55-.56,3.82-2.39,3.82-4.94,0-4.54-3.74-4.62-5.09-4.62ZM45.16,18.02c-1.03-1.75-2.95-1.99-4.78-1.99h-20.07v8.76h18.63c2.07,0,5.02.16,6.29-2.15.32-.64.56-1.51.56-2.23,0-.4,0-1.35-.64-2.39Z"/>
    <polygon class="cls-2" points="74.63 59.59 74.63 3.36 133.96 3.36 133.96 15.95 94.78 15.95 94.78 25.19 131.02 25.19 131.02 37.85 94.78 37.85 94.78 46.85 134.68 46.85 134.68 59.59 74.63 59.59"/>
    <polygon class="cls-2" points="187.73 59.59 161.04 29.49 161.04 59.59 141.13 59.59 141.13 3.36 157.78 3.36 184.62 32.99 184.62 3.36 204.45 3.36 204.45 59.59 187.73 59.59"/>
  </g>
  <path class="cls-1" d="M348.69,55.29c-2.95,1.99-5.81,3.34-9.16,4.3-3.26.96-8.2,1.91-16.17,1.91-11.94,0-19.19-2.63-23.73-5.34-1.51-.87-4.3-2.71-7.09-6.05-5.98-7.25-6.22-14.58-6.22-18.16,0-14.18,7.57-21.27,12.19-24.37,4.78-3.27,11.63-6.14,24.21-6.29,2.55,0,5.02,0,7.57.24,14.89,1.2,21.82,7.09,25.72,12.67,1.83,2.71,5.1,8.52,5.1,17.04,0,5.02-1.04,16.33-12.42,24.05M335.31,17.86c-.8-.8-2.71-2.23-5.41-3.19-1.44-.48-2.95-.88-5.98-.88-2.63,0-4.78.24-7.25,1.27-6.61,2.79-9.64,9.56-9.64,16.41,0,1.03.08,3.9,1.12,6.85,3.35,10.04,12.42,10.75,15.85,10.75.96,0,4.54,0,7.57-1.35,6.29-2.79,8.84-9.95,8.84-16.33,0-7.17-3.03-11.71-5.1-13.54Z"/>
  <polygon class="cls-1" points="430.17 59.59 430.17 23.6 416.87 59.59 401.34 59.59 388.12 23.76 388.12 59.59 368.36 59.59 368.36 3.36 395.05 3.36 409.22 40.08 423.4 3.36 450 3.36 450 59.59 430.17 59.59"/>
  <g>
    <path class="cls-3" d="M4.77,80.84l5.71,14.24,5.71-14.24h2.99v17.46h-2.3v-6.8l.22-7.34-5.73,14.14h-1.76l-5.72-14.1.23,7.3v6.8H1.8v-17.46h2.97Z"/>
    <path class="cls-3" d="M30.9,98.29c-.13-.26-.23-.71-.31-1.37-1.03,1.07-2.26,1.61-3.69,1.61-1.28,0-2.33-.36-3.15-1.09-.82-.72-1.23-1.64-1.23-2.75,0-1.35.51-2.4,1.54-3.15,1.03-.75,2.47-1.12,4.33-1.12h2.16v-1.02c0-.77-.23-1.39-.7-1.85s-1.15-.69-2.05-.69c-.79,0-1.45.2-1.99.6-.54.4-.8.88-.8,1.45h-2.23c0-.65.23-1.27.69-1.88.46-.6,1.08-1.08,1.87-1.43.79-.35,1.65-.53,2.6-.53,1.49,0,2.67.37,3.51,1.12s1.29,1.78,1.32,3.09v5.97c0,1.19.15,2.14.46,2.84v.19h-2.33ZM27.22,96.6c.7,0,1.35-.18,1.98-.54s1.07-.83,1.35-1.4v-2.66h-1.74c-2.72,0-4.08.8-4.08,2.39,0,.7.23,1.24.7,1.63s1.06.59,1.79.59Z"/>
    <path class="cls-3" d="M38.34,85.32l.07,1.63c.99-1.25,2.29-1.87,3.88-1.87,2.74,0,4.12,1.55,4.15,4.64v8.57h-2.22v-8.58c0-.94-.22-1.63-.64-2.07-.42-.45-1.07-.67-1.96-.67-.72,0-1.35.19-1.89.58s-.97.89-1.27,1.51v9.24h-2.22v-12.97h2.1Z"/>
    <path class="cls-3" d="M52.8,82.18v3.14h2.42v1.72h-2.42v8.06c0,.52.11.91.32,1.17.22.26.58.39,1.1.39.26,0,.61-.05,1.06-.14v1.79c-.58.16-1.15.24-1.7.24-.99,0-1.74-.3-2.24-.9-.5-.6-.76-1.45-.76-2.55v-8.04h-2.36v-1.72h2.36v-3.14h2.22Z"/>
    <path class="cls-3" d="M63.2,98.53c-1.76,0-3.19-.58-4.29-1.73s-1.65-2.7-1.65-4.63v-.41c0-1.29.25-2.44.74-3.45.49-1.01,1.18-1.8,2.06-2.37.88-.57,1.84-.86,2.87-.86,1.69,0,3,.56,3.93,1.67.94,1.11,1.4,2.7,1.4,4.77v.92h-8.79c.03,1.28.41,2.31,1.12,3.1.72.79,1.62,1.18,2.73,1.18.78,0,1.45-.16,1.99-.48.54-.32,1.02-.74,1.43-1.27l1.35,1.06c-1.09,1.67-2.72,2.51-4.89,2.51ZM62.92,86.9c-.9,0-1.65.33-2.25.98s-.98,1.56-1.13,2.74h6.5v-.17c-.06-1.13-.37-2-.91-2.62s-1.28-.93-2.21-.93Z"/>
    <path class="cls-3" d="M72.92,85.32l.07,1.63c.99-1.25,2.29-1.87,3.88-1.87,2.74,0,4.12,1.55,4.15,4.64v8.57h-2.22v-8.58c0-.94-.22-1.63-.64-2.07-.42-.45-1.07-.67-1.96-.67-.72,0-1.35.19-1.89.58s-.97.89-1.27,1.51v9.24h-2.22v-12.97h2.1Z"/>
    <path class="cls-3" d="M84.38,81.88c0-.36.11-.66.33-.91.22-.25.55-.37.98-.37s.76.12.98.37c.22.25.34.55.34.91s-.11.66-.34.9-.55.36-.98.36-.76-.12-.98-.36c-.22-.24-.33-.54-.33-.9ZM86.78,98.29h-2.22v-12.97h2.22v12.97Z"/>
    <path class="cls-3" d="M92.42,85.32l.06,1.44c.95-1.12,2.23-1.68,3.85-1.68,1.81,0,3.05.7,3.7,2.09.43-.62.99-1.13,1.68-1.51.69-.38,1.51-.58,2.45-.58,2.85,0,4.29,1.51,4.34,4.52v8.69h-2.22v-8.56c0-.93-.21-1.62-.64-2.08s-1.13-.69-2.13-.69c-.82,0-1.51.25-2.05.74-.54.49-.86,1.15-.95,1.98v8.61h-2.23v-8.5c0-1.89-.92-2.83-2.77-2.83-1.45,0-2.45.62-2.99,1.86v9.47h-2.22v-12.97h2.1Z"/>
    <path class="cls-3" d="M111.86,81.88c0-.36.11-.66.33-.91.22-.25.55-.37.98-.37s.76.12.98.37c.22.25.34.55.34.91s-.11.66-.34.9-.55.36-.98.36-.76-.12-.98-.36c-.22-.24-.33-.54-.33-.9ZM114.26,98.29h-2.22v-12.97h2.22v12.97Z"/>
    <path class="cls-3" d="M123.19,98.53c-1.76,0-3.19-.58-4.29-1.73s-1.65-2.7-1.65-4.63v-.41c0-1.29.25-2.44.74-3.45.49-1.01,1.18-1.8,2.06-2.37.88-.57,1.84-.86,2.87-.86,1.69,0,3,.56,3.93,1.67.94,1.11,1.4,2.7,1.4,4.77v.92h-8.79c.03,1.28.41,2.31,1.12,3.1.72.79,1.62,1.18,2.73,1.18.78,0,1.45-.16,1.99-.48.54-.32,1.02-.74,1.43-1.27l1.35,1.06c-1.09,1.67-2.72,2.51-4.89,2.51ZM122.92,86.9c-.9,0-1.65.33-2.25.98s-.98,1.56-1.13,2.74h6.5v-.17c-.06-1.13-.37-2-.91-2.62s-1.28-.93-2.21-.93Z"/>
    <path class="cls-3" d="M132.92,85.32l.07,1.63c.99-1.25,2.29-1.87,3.88-1.87,2.74,0,4.12,1.55,4.15,4.64v8.57h-2.22v-8.58c0-.94-.22-1.63-.64-2.07-.42-.45-1.07-.67-1.96-.67-.72,0-1.35.19-1.89.58s-.97.89-1.27,1.51v9.24h-2.22v-12.97h2.1Z"/>
    <path class="cls-3" d="M147.38,82.18v3.14h2.42v1.72h-2.42v8.06c0,.52.11.91.32,1.17.22.26.58.39,1.1.39.26,0,.61-.05,1.06-.14v1.79c-.58.16-1.15.24-1.7.24-.99,0-1.74-.3-2.24-.9-.5-.6-.76-1.45-.76-2.55v-8.04h-2.36v-1.72h2.36v-3.14h2.22Z"/>
    <path class="cls-3" d="M151.56,91.69c0-1.27.25-2.41.75-3.43.5-1.01,1.2-1.8,2.09-2.35.89-.55,1.91-.83,3.05-.83,1.77,0,3.2.61,4.29,1.83,1.09,1.22,1.64,2.85,1.64,4.88v.16c0,1.26-.24,2.4-.73,3.4-.48,1-1.17,1.78-2.07,2.34-.9.56-1.93.84-3.1.84-1.76,0-3.18-.61-4.27-1.83-1.09-1.22-1.64-2.84-1.64-4.86v-.16ZM153.79,91.95c0,1.44.33,2.59,1,3.47.67.87,1.56,1.31,2.68,1.31s2.02-.44,2.69-1.33,1-2.12,1-3.71c0-1.42-.34-2.58-1.01-3.46-.68-.88-1.57-1.33-2.69-1.33s-1.98.44-2.65,1.31c-.67.87-1.01,2.12-1.01,3.74Z"/>
    <path class="cls-3" d="M171.69,91.7c0-1.99.47-3.59,1.41-4.8.94-1.21,2.18-1.82,3.7-1.82s2.72.52,3.61,1.56v-6.76h2.22v18.42h-2.04l-.11-1.39c-.89,1.09-2.12,1.63-3.7,1.63s-2.73-.62-3.68-1.85c-.95-1.23-1.42-2.84-1.42-4.82v-.17ZM173.91,91.95c0,1.47.3,2.62.91,3.45.61.83,1.45,1.25,2.52,1.25,1.41,0,2.43-.63,3.08-1.89v-5.96c-.66-1.22-1.68-1.83-3.06-1.83-1.09,0-1.93.42-2.54,1.26s-.91,2.08-.91,3.73Z"/>
    <path class="cls-3" d="M191.46,98.53c-1.76,0-3.19-.58-4.29-1.73s-1.65-2.7-1.65-4.63v-.41c0-1.29.25-2.44.74-3.45.49-1.01,1.18-1.8,2.06-2.37.88-.57,1.84-.86,2.87-.86,1.69,0,3,.56,3.93,1.67.94,1.11,1.4,2.7,1.4,4.77v.92h-8.79c.03,1.28.41,2.31,1.12,3.1.72.79,1.62,1.18,2.73,1.18.78,0,1.45-.16,1.99-.48.54-.32,1.02-.74,1.43-1.27l1.35,1.06c-1.09,1.67-2.72,2.51-4.89,2.51ZM191.19,86.9c-.9,0-1.65.33-2.25.98s-.98,1.56-1.13,2.74h6.5v-.17c-.06-1.13-.37-2-.91-2.62s-1.28-.93-2.21-.93Z"/>
    <path class="cls-3" d="M215.38,90.22h-7.57v6.19h8.79v1.88h-11.09v-17.46h10.97v1.88h-8.67v5.62h7.57v1.88Z"/>
    <path class="cls-3" d="M226.68,94.85c0-.6-.23-1.07-.68-1.4-.45-.33-1.24-.62-2.36-.86-1.12-.24-2.01-.53-2.67-.86-.66-.34-1.15-.74-1.46-1.2-.32-.46-.47-1.02-.47-1.66,0-1.06.45-1.96,1.35-2.7.9-.74,2.05-1.1,3.45-1.1,1.47,0,2.66.38,3.58,1.14.92.76,1.37,1.73,1.37,2.91h-2.23c0-.61-.26-1.13-.77-1.57-.52-.44-1.17-.66-1.95-.66s-1.44.18-1.89.53-.68.81-.68,1.38c0,.53.21.94.64,1.21s1.19.53,2.3.78c1.11.25,2,.54,2.69.89s1.2.76,1.53,1.24.5,1.07.5,1.77c0,1.16-.46,2.09-1.39,2.79-.93.7-2.13,1.05-3.61,1.05-1.04,0-1.96-.18-2.76-.55s-1.42-.88-1.88-1.54c-.45-.66-.68-1.37-.68-2.14h2.22c.04.74.34,1.33.89,1.77.56.44,1.29.65,2.2.65.84,0,1.51-.17,2.02-.51.51-.34.76-.79.76-1.36Z"/>
    <path class="cls-3" d="M234.79,82.18v3.14h2.42v1.72h-2.42v8.06c0,.52.11.91.32,1.17.22.26.58.39,1.1.39.26,0,.61-.05,1.06-.14v1.79c-.58.16-1.15.24-1.7.24-.99,0-1.74-.3-2.24-.9-.5-.6-.76-1.45-.76-2.55v-8.04h-2.36v-1.72h2.36v-3.14h2.22Z"/>
    <path class="cls-3" d="M247.82,98.29c-.13-.26-.23-.71-.31-1.37-1.03,1.07-2.26,1.61-3.69,1.61-1.28,0-2.33-.36-3.15-1.09s-1.23-1.64-1.23-2.75c0-1.35.51-2.4,1.54-3.15s2.47-1.12,4.33-1.12h2.16v-1.02c0-.77-.23-1.39-.69-1.85-.46-.46-1.15-.69-2.05-.69-.79,0-1.45.2-1.99.6-.54.4-.8.88-.8,1.45h-2.23c0-.65.23-1.27.69-1.88s1.08-1.08,1.87-1.43,1.65-.53,2.6-.53c1.49,0,2.66.37,3.51,1.12s1.29,1.78,1.32,3.09v5.97c0,1.19.15,2.14.46,2.84v.19h-2.33ZM244.14,96.6c.69,0,1.35-.18,1.98-.54s1.07-.83,1.35-1.4v-2.66h-1.74c-2.72,0-4.08.8-4.08,2.39,0,.7.23,1.24.7,1.63s1.06.59,1.79.59Z"/>
    <path class="cls-3" d="M258.37,96.72c.79,0,1.48-.24,2.07-.72.59-.48.92-1.08.98-1.8h2.1c-.04.74-.3,1.45-.77,2.12s-1.1,1.21-1.89,1.61-1.62.6-2.5.6c-1.77,0-3.17-.59-4.21-1.77-1.04-1.18-1.56-2.79-1.56-4.84v-.37c0-1.26.23-2.39.7-3.37.46-.98,1.13-1.75,2-2.29s1.89-.82,3.08-.82c1.45,0,2.66.44,3.63,1.31.96.87,1.48,2,1.54,3.39h-2.1c-.06-.84-.38-1.53-.95-2.07-.57-.54-1.28-.81-2.12-.81-1.13,0-2,.41-2.62,1.22s-.93,1.99-.93,3.52v.42c0,1.5.31,2.65.92,3.45s1.5,1.21,2.64,1.21Z"/>
    <path class="cls-3" d="M266.03,81.88c0-.36.11-.66.33-.91.22-.25.55-.37.98-.37s.76.12.98.37c.22.25.34.55.34.91s-.11.66-.34.9-.55.36-.98.36-.76-.12-.98-.36-.33-.54-.33-.9ZM268.43,98.29h-2.22v-12.97h2.22v12.97Z"/>
    <path class="cls-3" d="M271.39,91.69c0-1.27.25-2.41.75-3.43.5-1.01,1.19-1.8,2.09-2.35.89-.55,1.91-.83,3.05-.83,1.77,0,3.2.61,4.29,1.83,1.09,1.22,1.64,2.85,1.64,4.88v.16c0,1.26-.24,2.4-.73,3.4s-1.17,1.78-2.07,2.34c-.9.56-1.93.84-3.1.84-1.76,0-3.18-.61-4.27-1.83-1.09-1.22-1.64-2.84-1.64-4.86v-.16ZM273.62,91.95c0,1.44.33,2.59,1,3.47s1.56,1.31,2.68,1.31,2.02-.44,2.69-1.33.99-2.12.99-3.71c0-1.42-.34-2.58-1.01-3.46s-1.57-1.33-2.69-1.33-1.98.44-2.65,1.31c-.67.87-1.01,2.12-1.01,3.74Z"/>
    <path class="cls-3" d="M288.08,85.32l.07,1.63c.99-1.25,2.29-1.87,3.88-1.87,2.74,0,4.12,1.55,4.15,4.64v8.57h-2.22v-8.58c0-.94-.22-1.63-.64-2.07-.42-.45-1.07-.67-1.96-.67-.72,0-1.35.19-1.9.58-.54.38-.97.89-1.27,1.51v9.24h-2.22v-12.97h2.1Z"/>
    <path class="cls-3" d="M304.91,98.53c-1.76,0-3.19-.58-4.29-1.73s-1.65-2.7-1.65-4.63v-.41c0-1.29.25-2.44.74-3.45.49-1.01,1.18-1.8,2.06-2.37s1.84-.86,2.87-.86c1.69,0,3,.56,3.93,1.67.94,1.11,1.4,2.7,1.4,4.77v.92h-8.79c.03,1.28.41,2.31,1.12,3.1s1.62,1.18,2.73,1.18c.78,0,1.45-.16,1.99-.48.54-.32,1.02-.74,1.43-1.27l1.36,1.06c-1.09,1.67-2.72,2.51-4.89,2.51ZM304.64,86.9c-.9,0-1.65.33-2.25.98s-.98,1.56-1.13,2.74h6.5v-.17c-.06-1.13-.37-2-.91-2.62s-1.28-.93-2.21-.93Z"/>
    <path class="cls-3" d="M320.09,94.85c0-.6-.23-1.07-.68-1.4s-1.24-.62-2.36-.86-2.01-.53-2.67-.86c-.66-.34-1.15-.74-1.46-1.2-.32-.46-.47-1.02-.47-1.66,0-1.06.45-1.96,1.35-2.7.9-.74,2.05-1.1,3.45-1.1,1.47,0,2.66.38,3.58,1.14.92.76,1.37,1.73,1.37,2.91h-2.23c0-.61-.26-1.13-.77-1.57-.52-.44-1.17-.66-1.95-.66s-1.44.18-1.89.53-.68.81-.68,1.38c0,.53.21.94.63,1.21s1.19.53,2.3.78c1.11.25,2,.54,2.69.89.69.34,1.2.76,1.53,1.24s.5,1.07.5,1.77c0,1.16-.46,2.09-1.39,2.79-.93.7-2.13,1.05-3.61,1.05-1.04,0-1.96-.18-2.76-.55s-1.43-.88-1.88-1.54c-.45-.66-.68-1.37-.68-2.14h2.22c.04.74.34,1.33.89,1.77s1.29.65,2.2.65c.84,0,1.51-.17,2.02-.51s.76-.79.76-1.36Z"/>
    <path class="cls-3" d="M330.74,91.7c0-1.99.47-3.59,1.42-4.8.94-1.21,2.18-1.82,3.7-1.82s2.72.52,3.61,1.56v-6.76h2.22v18.42h-2.04l-.11-1.39c-.89,1.09-2.12,1.63-3.71,1.63s-2.73-.62-3.68-1.85c-.95-1.23-1.42-2.84-1.42-4.82v-.17ZM332.96,91.95c0,1.47.3,2.62.91,3.45.61.83,1.45,1.25,2.52,1.25,1.41,0,2.43-.63,3.08-1.89v-5.96c-.66-1.22-1.68-1.83-3.06-1.83-1.09,0-1.93.42-2.54,1.26s-.91,2.08-.91,3.73Z"/>
    <path class="cls-3" d="M350.51,98.53c-1.76,0-3.19-.58-4.29-1.73s-1.65-2.7-1.65-4.63v-.41c0-1.29.25-2.44.74-3.45.49-1.01,1.18-1.8,2.06-2.37s1.84-.86,2.87-.86c1.69,0,3,.56,3.93,1.67.94,1.11,1.4,2.7,1.4,4.77v.92h-8.79c.03,1.28.41,2.31,1.12,3.1s1.62,1.18,2.73,1.18c.78,0,1.45-.16,1.99-.48.54-.32,1.02-.74,1.43-1.27l1.36,1.06c-1.09,1.67-2.72,2.51-4.89,2.51ZM350.23,86.9c-.9,0-1.65.33-2.25.98s-.98,1.56-1.13,2.74h6.5v-.17c-.06-1.13-.37-2-.91-2.62s-1.28-.93-2.21-.93Z"/>
    <path class="cls-3" d="M369.7,90.51c-1.97-.57-3.41-1.26-4.31-2.09-.9-.83-1.35-1.85-1.35-3.06,0-1.38.55-2.51,1.65-3.41,1.1-.9,2.53-1.35,4.29-1.35,1.2,0,2.27.23,3.21.7s1.67,1.1,2.18,1.92c.52.82.77,1.71.77,2.67h-2.31c0-1.06-.34-1.89-1.01-2.5s-1.62-.91-2.84-.91c-1.14,0-2.02.25-2.66.75-.63.5-.95,1.19-.95,2.08,0,.71.3,1.32.9,1.81.6.49,1.63.94,3.08,1.35,1.45.41,2.59.86,3.41,1.35.82.49,1.43,1.07,1.82,1.72.4.65.59,1.43.59,2.31,0,1.41-.55,2.55-1.65,3.4-1.1.85-2.58,1.28-4.42,1.28-1.2,0-2.32-.23-3.36-.69-1.04-.46-1.84-1.09-2.4-1.89-.56-.8-.85-1.71-.85-2.72h2.31c0,1.06.39,1.89,1.17,2.5.78.61,1.82.92,3.12.92,1.22,0,2.15-.25,2.79-.74.65-.5.97-1.17.97-2.03s-.3-1.52-.9-1.98c-.6-.47-1.69-.93-3.26-1.39Z"/>
    <path class="cls-3" d="M384.16,98.53c-1.76,0-3.19-.58-4.29-1.73-1.1-1.16-1.65-2.7-1.65-4.63v-.41c0-1.29.25-2.44.74-3.45.49-1.01,1.18-1.8,2.06-2.37s1.84-.86,2.87-.86c1.69,0,3,.56,3.93,1.67.94,1.11,1.4,2.7,1.4,4.77v.92h-8.79c.03,1.28.41,2.31,1.12,3.1s1.62,1.18,2.73,1.18c.78,0,1.45-.16,1.99-.48.54-.32,1.02-.74,1.43-1.27l1.36,1.06c-1.09,1.67-2.72,2.51-4.89,2.51ZM383.89,86.9c-.9,0-1.65.33-2.25.98s-.98,1.56-1.13,2.74h6.5v-.17c-.06-1.13-.37-2-.91-2.62s-1.28-.93-2.21-.93Z"/>
    <path class="cls-3" d="M398.06,87.31c-.34-.06-.7-.08-1.09-.08-1.45,0-2.44.62-2.96,1.86v9.21h-2.22v-12.97h2.16l.04,1.5c.73-1.16,1.76-1.74,3.09-1.74.43,0,.76.06.98.17v2.06Z"/>
    <path class="cls-3" d="M404.59,95.29l3.21-9.96h2.27l-4.65,12.97h-1.69l-4.7-12.97h2.27l3.3,9.96Z"/>
    <path class="cls-3" d="M412.22,81.88c0-.36.11-.66.33-.91.22-.25.55-.37.98-.37s.76.12.98.37c.22.25.34.55.34.91s-.11.66-.34.9-.55.36-.98.36-.76-.12-.98-.36-.33-.54-.33-.9ZM414.62,98.29h-2.22v-12.97h2.22v12.97Z"/>
    <path class="cls-3" d="M423.37,96.72c.79,0,1.48-.24,2.07-.72.59-.48.92-1.08.98-1.8h2.1c-.04.74-.3,1.45-.77,2.12s-1.1,1.21-1.89,1.61-1.62.6-2.5.6c-1.77,0-3.17-.59-4.21-1.77-1.04-1.18-1.56-2.79-1.56-4.84v-.37c0-1.26.23-2.39.7-3.37.46-.98,1.13-1.75,2-2.29s1.89-.82,3.08-.82c1.45,0,2.66.44,3.63,1.31.96.87,1.48,2,1.54,3.39h-2.1c-.06-.84-.38-1.53-.95-2.07-.57-.54-1.28-.81-2.12-.81-1.13,0-2,.41-2.62,1.22s-.93,1.99-.93,3.52v.42c0,1.5.31,2.65.92,3.45s1.5,1.21,2.64,1.21Z"/>
    <path class="cls-3" d="M431.03,81.88c0-.36.11-.66.33-.91.22-.25.55-.37.98-.37s.76.12.98.37c.22.25.34.55.34.91s-.11.66-.34.9-.55.36-.98.36-.76-.12-.98-.36-.33-.54-.33-.9ZM433.43,98.29h-2.22v-12.97h2.22v12.97Z"/>
    <path class="cls-3" d="M436.39,91.69c0-1.27.25-2.41.75-3.43.5-1.01,1.19-1.8,2.09-2.35.89-.55,1.91-.83,3.05-.83,1.77,0,3.2.61,4.29,1.83,1.09,1.22,1.64,2.85,1.64,4.88v.16c0,1.26-.24,2.4-.73,3.4s-1.17,1.78-2.07,2.34c-.9.56-1.93.84-3.1.84-1.76,0-3.18-.61-4.27-1.83-1.09-1.22-1.64-2.84-1.64-4.86v-.16ZM438.62,91.95c0,1.44.33,2.59,1,3.47s1.56,1.31,2.68,1.31,2.02-.44,2.69-1.33.99-2.12.99-3.71c0-1.42-.34-2.58-1.01-3.46s-1.57-1.33-2.69-1.33-1.98.44-2.65,1.31c-.67.87-1.01,2.12-1.01,3.74Z"/>
  </g>
</svg>